<?xml version="1.0" encoding="utf-8"?>
<!-- Generator: Adobe Illustrator 23.0.2, SVG Export Plug-In . SVG Version: 6.00 Build 0)  -->
<svg version="1.1" id="Calque_1" xmlns="http://www.w3.org/2000/svg" xmlns:xlink="http://www.w3.org/1999/xlink" x="0px" y="0px"
	 viewBox="0 0 971 219" style="enable-background:new 0 0 971 219;" xml:space="preserve">
<style type="text/css">
	.st0{fill:#02C39A;}
	.st1{fill-opacity:0;}
	.st2{fill:#F0F3BD;}
	.st3{fill:#E5E7B1;}
	.st4{fill:#05668D;}
	.st5{fill:#FFFFFF;}
	.st6{font-family:'LilyScriptOne-Regular';}
	.st7{font-size:106.0656px;}
	.st8{letter-spacing:-6.2;}
</style>
<g>
	<g>
		<g>
			<g>
				<path id="d15IB0UYot" class="st0" d="M280.9,130.4c0,40.4-38.3,73.2-85.4,73.2S110,170.8,110,130.4s38.3-73.2,85.4-73.2
					S280.9,90,280.9,130.4z"/>
			</g>
			<g>
				<g>
					<path class="st1" d="M280.9,130.4c0,40.4-38.3,73.2-85.4,73.2S110,170.8,110,130.4s38.3-73.2,85.4-73.2S280.9,90,280.9,130.4z"
						/>
				</g>
			</g>
		</g>
		<g>
			<g>
				<path id="e1BgzF0Mst" class="st2" d="M369.7,100.9c3.6,20.5-71.6,49.3-167.7,64.2C105.9,180,24.8,175.6,21.3,155
					c-3.6-20.5,71.6-49.3,167.7-64.2S366.1,80.5,369.7,100.9z"/>
			</g>
		</g>
		<g>
			<g>
				<path id="aGitIN87O" class="st3" d="M353.9,103.9c2.9,16.8-65.8,41.1-153.2,54.4S39.9,168.8,37,152.1
					c-2.9-16.8,65.8-41.1,153.2-54.4S351,87.2,353.9,103.9z"/>
			</g>
			<g>
				<g>
					<path class="st1" d="M353.9,103.9c2.9,16.8-65.8,41.1-153.2,54.4S39.9,168.8,37,152.1c-2.9-16.8,65.8-41.1,153.2-54.4
						S351,87.2,353.9,103.9z"/>
				</g>
			</g>
		</g>
		<g>
			<g>
				<path id="bIsNxAZHd" class="st4" d="M111.9,142c-4.8-14.2-7.1-26.2-6.8-35.9c0.3-14.7,7-29.3,11.9-38.7
					c8.8-16.9,23.4-29.1,43.7-36.6c8.4-3.9,20.8-5.8,37-5.8s32.1,5.1,47.5,15.5c8.9,5.2,17,13.3,24.5,24.2
					c7.4,11,11.7,29.8,12.7,56.5c-13.4,5-22.8,8.4-28.3,10.1c-5.5,1.7-13.4,3.7-23.8,5.9c-17.5,3.5-36.4,6.1-56.8,7.9
					C153.1,146.7,132.6,145.7,111.9,142"/>
			</g>
			<g>
				<g>
					<path class="st1" d="M111.9,142c-4.8-14.2-7.1-26.2-6.8-35.9c0.3-14.7,7-29.3,11.9-38.7c8.8-16.9,23.4-29.1,43.7-36.6
						c8.4-3.9,20.8-5.8,37-5.8s32.1,5.1,47.5,15.5c8.9,5.2,17,13.3,24.5,24.2c7.4,11,11.7,29.8,12.7,56.5
						c-13.4,5-22.8,8.4-28.3,10.1c-5.5,1.7-13.4,3.7-23.8,5.9c-17.5,3.5-36.4,6.1-56.8,7.9C153.1,146.7,132.6,145.7,111.9,142"/>
				</g>
			</g>
		</g>
		<g>
			<g>
				<path id="doYhypFko" class="st4" d="M186,21.8c-0.2,4-4.3,7.1-9.1,6.9s-8.6-3.6-8.4-7.6c0.2-4,4.3-7.1,9.1-6.9
					C182.4,14.4,186.2,17.9,186,21.8z"/>
			</g>
		</g>
		<g>
			<g>
				<path id="cwYMTIw9u" class="st5" d="M151.6,194.7c2.1,1.4,4.3,2.4,6.8,3.2c15.1,6.2,32.2,8.5,51.3,6.7
					c19.1-1.7,37.2-11.3,54.2-29l-13,7l-8.5,0.8l-14.6,7l-5.1-5.8l-23.9,11.3l-13.1-5.5l-4.8,6.2l-4.5-10.5l-6.9,6.5l-4-6.5
					l-1.1,7.5l-11.7-8.3l2.1,5l-11.2-5l2.1,4.3C147.7,191.6,149.6,193.3,151.6,194.7z"/>
			</g>
			<g>
				<g>
					<path class="st1" d="M151.6,194.7c2.1,1.4,4.3,2.4,6.8,3.2c15.1,6.2,32.2,8.5,51.3,6.7c19.1-1.7,37.2-11.3,54.2-29l-13,7
						l-8.5,0.8l-14.6,7l-5.1-5.8l-23.9,11.3l-13.1-5.5l-4.8,6.2l-4.5-10.5l-6.9,6.5l-4-6.5l-1.1,7.5l-11.7-8.3l2.1,5l-11.2-5
						l2.1,4.3C147.7,191.6,149.6,193.3,151.6,194.7z"/>
				</g>
			</g>
		</g>
	</g>
</g>
<g>
	<g>
		<g>
			<g id="b4n7eCfiDH_1_">
				<g>
					<text transform="matrix(0.8111 -2.551263e-03 2.069278e-03 1 386.363 150.7569)" class="st5 st6 st7 st8">Green Gourmet</text>
				</g>
			</g>
		</g>
	</g>
</g>
</svg>
