<svg xmlns="http://www.w3.org/2000/svg" viewBox="0 0 360 718"><defs><style>.cls-1{fill:none;}.cls-2{fill:#f2f2f2;}</style></defs><title>Fichier 1</title><g id="Calque_2" data-name="Calque 2"><g id="Layer_1" data-name="Layer 1"><path class="cls-1" d="M306.6,19H278.1c-6.1,0-8.3-.8-8.7,6.9a14.52,14.52,0,0,1-4,9.5,21.69,21.69,0,0,1-9.3,5.8,27.21,27.21,0,0,1-8,1.7H116.5c-2.7,0-5.5-1-8-1.8a22,22,0,0,1-9.3-5.8,14.25,14.25,0,0,1-4-9.5c-.4-7.7-2.6-7-8.7-7H57.7C40.2,19,25,31.4,25,48.8V662.1C25,679.6,40.2,695,57.6,695h249c17.5,0,30.4-15.4,30.4-32.9V48.8C337,31.4,324.1,19,306.6,19Z"/><path d="M356,163V50.6C356,21.8,333.6,0,304.8,0H56C27.2,0,3,21.9,3,50.6V94H0v27H3v25H0v51H3v15H0v51H3V664.4C3,693.2,27.3,718,56,718H304.8c28.8,0,51.2-24.8,51.2-53.6V246h4V163ZM222.3,22.5a4.4,4.4,0,1,1-4.4-4.4A4.44,4.44,0,0,1,222.3,22.5ZM162.8,22h39c1.7,0,3,1,3,2.5s-1.3,2.5-3,2.5h-39c-1.7,0-3-1-3-2.5S161.1,22,162.8,22ZM337,662.1c0,17.5-12.9,32.9-30.4,32.9H57.6C40.1,695,25,679.6,25,662.1V48.8C25,31.4,40.2,19,57.6,19H86.4c6.1,0,8.3-.9,8.7,6.8a15,15,0,0,0,4,9.6,21.86,21.86,0,0,0,9.3,5.9,27.21,27.21,0,0,0,8,1.7H247.9c2.7,0,5.5-1.1,8-1.9a21.87,21.87,0,0,0,9.3-5.7,13.79,13.79,0,0,0,4-9.4c.4-7.7,2.6-7.1,8.7-7.1h28.5c17.5,0,30.4,12.4,30.4,29.8V662.1Z"/><path class="cls-2" d="M201.8,22h-39c-1.7,0-3,1-3,2.5s1.3,2.5,3,2.5h39c1.7,0,3-1,3-2.5A2.74,2.74,0,0,0,201.8,22Z"/><circle class="cls-2" cx="217.9" cy="22.5" r="4.4"/></g></g></svg>