<?xml version="1.0" encoding="utf-8"?>
<!-- Generator: Adobe Illustrator 23.0.2, SVG Export Plug-In . SVG Version: 6.00 Build 0)  -->
<svg version="1.1" id="Calque_1" xmlns="http://www.w3.org/2000/svg" xmlns:xlink="http://www.w3.org/1999/xlink" x="0px" y="0px"
	 viewBox="0 0 360 312" style="enable-background:new 0 0 360 312;" xml:space="preserve">
<style type="text/css">
	.st0{fill:none;}
	.st1{fill:#F2F2F2;}
</style>
<title>Fichier 1</title>
<g>
	<g id="Layer_1">
		<path class="st0" d="M306.6,19h-28.5c-6.1,0-8.3-0.8-8.7,6.9c-0.1,3.5-1.5,6.9-4,9.5c-2.6,2.7-5.8,4.7-9.3,5.8
			c-2.6,1-5.3,1.5-8,1.7H116.5c-2.7,0-5.5-1-8-1.8c-3.5-1.1-6.7-3.1-9.3-5.8c-2.5-2.6-3.9-5.9-4-9.5c-0.4-7.7-2.6-7-8.7-7H57.7
			C40.2,19,25,31.4,25,48.8v613.3c0,17.5,15.2,32.9,32.6,32.9h249c17.5,0,30.4-15.4,30.4-32.9V48.8C337,31.4,324.1,19,306.6,19z"/>
		<path d="M356,163V50.6C356,21.8,333.6,0,304.8,0H56C27.2,0,3,21.9,3,50.6V94H0v27h3v25H0v51h3v15H0v51h3v401.4
			C3,693.2,27.3,718,56,718h248.8c28.8,0,51.2-24.8,51.2-53.6V246h4v-83H356z M222.3,22.5c0,2.4-2,4.4-4.4,4.4c-2.4,0-4.4-2-4.4-4.4
			s2-4.4,4.4-4.4l0,0C220.3,18.1,222.3,20.1,222.3,22.5z M162.8,22h39c1.7,0,3,1,3,2.5s-1.3,2.5-3,2.5h-39c-1.7,0-3-1-3-2.5
			S161.1,22,162.8,22z M337,662.1c0,17.5-12.9,32.9-30.4,32.9h-249C40.1,695,25,679.6,25,662.1V48.8C25,31.4,40.2,19,57.6,19h28.8
			c6.1,0,8.3-0.9,8.7,6.8c0.1,3.6,1.6,7,4,9.6c2.5,2.7,5.7,4.8,9.3,5.9c2.6,1,5.3,1.5,8,1.7h131.5c2.7,0,5.5-1.1,8-1.9
			c3.5-1.1,6.7-3,9.3-5.7c2.5-2.5,3.9-5.9,4-9.4c0.4-7.7,2.6-7.1,8.7-7.1h28.5c17.5,0,30.4,12.4,30.4,29.8v613.4H337z"/>
		<path class="st1" d="M201.8,22h-39c-1.7,0-3,1-3,2.5s1.3,2.5,3,2.5h39c1.7,0,3-1,3-2.5C204.7,23,203.4,21.9,201.8,22
			C201.8,22,201.8,22,201.8,22z"/>
		<circle class="st1" cx="217.9" cy="22.5" r="4.4"/>
	</g>
</g>
</svg>
