<?xml version="1.0" encoding="utf-8"?>
<!-- Generator: Adobe Illustrator 23.0.2, SVG Export Plug-In . SVG Version: 6.00 Build 0)  -->
<svg version="1.1" id="Calque_1" xmlns="http://www.w3.org/2000/svg" xmlns:xlink="http://www.w3.org/1999/xlink" x="0px" y="0px"
	 viewBox="0 0 629 387" style="enable-background:new 0 0 629 387;" xml:space="preserve">
<style type="text/css">
	.st0{fill:#02C39A;}
	.st1{fill-opacity:0;}
	.st2{fill:#F0F3BD;}
	.st3{fill:#E5E7B1;}
	.st4{fill:#05668D;}
	.st5{fill:#FFFFFF;}
</style>
<g>
	<g>
		<g>
			<g>
				<path id="d15IB0UYot" class="st0" d="M457.4,219.6c0,73-66.5,132.3-148.4,132.3s-148.4-59.3-148.4-132.3
					c0-73,66.5-132.3,148.4-132.3S457.4,146.6,457.4,219.6z"/>
			</g>
			<g>
				<g>
					<path class="st1" d="M457.4,219.6c0,73-66.5,132.3-148.4,132.3s-148.4-59.3-148.4-132.3c0-73,66.5-132.3,148.4-132.3
						S457.4,146.6,457.4,219.6z"/>
				</g>
			</g>
		</g>
		<g>
			<g>
				<path id="e1BgzF0Mst" class="st2" d="M611.7,166.3c6.2,37.1-124.4,89.1-291.4,116.1S12.5,301.3,6.4,264.2
					c-6.2-37.1,124.4-89.1,291.4-116.1C464.8,121.1,605.5,129.3,611.7,166.3z"/>
			</g>
		</g>
		<g>
			<g>
				<path id="aGitIN87O" class="st3" d="M584.2,171.7c5,30.3-114.3,74.4-266.2,98.4c-151.9,24-279.2,18.9-284.2-11.3
					c-5-30.3,114.3-74.4,266.2-98.4C451.9,136.4,579.2,141.4,584.2,171.7z"/>
			</g>
			<g>
				<g>
					<path class="st1" d="M584.2,171.7c5,30.3-114.3,74.4-266.2,98.4c-151.9,24-279.2,18.9-284.2-11.3
						c-5-30.3,114.3-74.4,266.2-98.4C451.9,136.4,579.2,141.4,584.2,171.7z"/>
				</g>
			</g>
		</g>
		<g>
			<g>
				<path id="bIsNxAZHd" class="st4" d="M163.9,240.5c-8.3-25.6-12.3-47.3-11.9-65c0.6-26.6,12.1-52.9,20.6-69.9
					c15.3-30.6,40.6-52.7,76-66.2c14.6-7,36.1-10.4,64.3-10.4s55.7,9.3,82.6,28.1c15.4,9.4,29.6,24,42.5,43.8
					c12.9,19.8,20.3,53.8,22,102.1c-23.2,9.1-39.6,15.2-49.1,18.3c-9.5,3.1-23.3,6.6-41.4,10.6c-30.4,6.3-63.3,11.1-98.7,14.2
					C235.4,249.1,199.8,247.3,163.9,240.5"/>
			</g>
			<g>
				<g>
					<path class="st1" d="M163.9,240.5c-8.3-25.6-12.3-47.3-11.9-65c0.6-26.6,12.1-52.9,20.6-69.9c15.3-30.6,40.6-52.7,76-66.2
						c14.6-7,36.1-10.4,64.3-10.4s55.7,9.3,82.6,28.1c15.4,9.4,29.6,24,42.5,43.8c12.9,19.8,20.3,53.8,22,102.1
						c-23.2,9.1-39.6,15.2-49.1,18.3c-9.5,3.1-23.3,6.6-41.4,10.6c-30.4,6.3-63.3,11.1-98.7,14.2
						C235.4,249.1,199.8,247.3,163.9,240.5"/>
				</g>
			</g>
		</g>
		<g>
			<g>
				<path id="doYhypFko" class="st4" d="M292.6,23.3c-0.3,7.2-7.4,12.8-15.8,12.4c-8.4-0.4-14.9-6.5-14.6-13.8
					c0.3-7.2,7.4-12.8,15.8-12.4C286.4,9.9,293,16.1,292.6,23.3z"/>
			</g>
		</g>
		<g>
			<g>
				<path id="cwYMTIw9u" class="st5" d="M232.9,335.8c3.6,2.5,7.5,4.4,11.8,5.8c26.2,11.2,55.9,15.3,89.1,12.2
					c33.2-3,64.6-20.5,94.2-52.5l-22.6,12.6l-14.8,1.4L365.2,328l-8.8-10.4l-41.5,20.4l-22.7-10l-8.3,11.2l-7.9-18.9l-12,11.8
					l-6.9-11.8l-1.9,13.6l-20.3-15l3.7,9.1l-19.4-9.1l3.7,7.7C226,330.2,229.3,333.3,232.9,335.8z"/>
			</g>
			<g>
				<g>
					<path class="st1" d="M232.9,335.8c3.6,2.5,7.5,4.4,11.8,5.8c26.2,11.2,55.9,15.3,89.1,12.2c33.2-3,64.6-20.5,94.2-52.5
						l-22.6,12.6l-14.8,1.4L365.2,328l-8.8-10.4l-41.5,20.4l-22.7-10l-8.3,11.2l-7.9-18.9l-12,11.8l-6.9-11.8l-1.9,13.6l-20.3-15
						l3.7,9.1l-19.4-9.1l3.7,7.7C226,330.2,229.3,333.3,232.9,335.8z"/>
				</g>
			</g>
		</g>
	</g>
</g>
</svg>
