<svg id="Calque_1" data-name="Calque 1" xmlns="http://www.w3.org/2000/svg" viewBox="0 0 858.68 191"><defs><style>.cls-1{fill:#02c39a;}.cls-2{fill-opacity:0;}.cls-3{fill:#f0f3bd;}.cls-4{fill:#e5e7b1;}.cls-5{fill:#05668d;}.cls-6,.cls-7{fill:#fff;}.cls-7{isolation:isolate;font-size:106.07px;font-family:LilyScriptOne-Regular, Lily Script One;letter-spacing:-0.06em;}</style></defs><title>nameWhite</title><path id="d15IB0UYot" class="cls-1" d="M-88.92,74.64c0,40.4-38.3,73.2-85.4,73.2s-85.5-32.8-85.5-73.2,38.3-73.2,85.4-73.2S-88.92,34.24-88.92,74.64Z" transform="translate(348.65 41.57)"/><path class="cls-2" d="M-88.92,74.64c0,40.4-38.3,73.2-85.4,73.2s-85.5-32.8-85.5-73.2,38.3-73.2,85.4-73.2S-88.92,34.24-88.92,74.64Z" transform="translate(348.65 41.57)"/><path id="e1BgzF0Mst" class="cls-3" d="M-.12,45.14c3.6,20.5-71.6,49.3-167.7,64.2s-177.2,10.5-180.7-10.1,71.6-49.3,167.7-64.2S-3.72,24.74-.12,45.14Z" transform="translate(348.65 41.57)"/><path id="aGitIN87O" class="cls-4" d="M-15.92,48.14c2.9,16.8-65.8,41.1-153.2,54.4s-160.8,10.5-163.7-6.2,65.8-41.1,153.2-54.4S-18.82,31.44-15.92,48.14Z" transform="translate(348.65 41.57)"/><path class="cls-2" d="M-15.92,48.14c2.9,16.8-65.8,41.1-153.2,54.4s-160.8,10.5-163.7-6.2,65.8-41.1,153.2-54.4S-18.82,31.44-15.92,48.14Z" transform="translate(348.65 41.57)"/><path id="bIsNxAZHd" class="cls-5" d="M-257.92,86.24c-4.8-14.2-7.1-26.2-6.8-35.9.3-14.7,7-29.3,11.9-38.7q13.2-25.35,43.7-36.6c8.4-3.9,20.8-5.8,37-5.8s32.1,5.1,47.5,15.5c8.9,5.2,17,13.3,24.5,24.2s11.7,29.8,12.7,56.5c-13.4,5-22.8,8.4-28.3,10.1s-13.4,3.7-23.8,5.9a526,526,0,0,1-56.8,7.9,241.22,241.22,0,0,1-61.6-3.1" transform="translate(348.65 41.57)"/><path class="cls-2" d="M-257.92,86.24c-4.8-14.2-7.1-26.2-6.8-35.9.3-14.7,7-29.3,11.9-38.7q13.2-25.35,43.7-36.6c8.4-3.9,20.8-5.8,37-5.8s32.1,5.1,47.5,15.5c8.9,5.2,17,13.3,24.5,24.2s11.7,29.8,12.7,56.5c-13.4,5-22.8,8.4-28.3,10.1s-13.4,3.7-23.8,5.9a526,526,0,0,1-56.8,7.9,241.22,241.22,0,0,1-61.6-3.1" transform="translate(348.65 41.57)"/><path id="doYhypFko" class="cls-5" d="M-183.82-34c-.2,4-4.3,7.1-9.1,6.9s-8.6-3.6-8.4-7.6,4.3-7.1,9.1-6.9S-183.62-37.86-183.82-34Z" transform="translate(348.65 41.57)"/><path id="cwYMTIw9u" class="cls-6" d="M-218.22,138.94a26.53,26.53,0,0,0,6.8,3.2c15.1,6.2,32.2,8.5,51.3,6.7s37.2-11.3,54.2-29l-13,7-8.5.8-14.6,7-5.1-5.8-23.9,11.3-13.1-5.5-4.8,6.2-4.5-10.5-6.9,6.5-4-6.5-1.1,7.5-11.7-8.3,2.1,5-11.2-5,2.1,4.3A44.68,44.68,0,0,0-218.22,138.94Z" transform="translate(348.65 41.57)"/><path class="cls-2" d="M-218.22,138.94a26.53,26.53,0,0,0,6.8,3.2c15.1,6.2,32.2,8.5,51.3,6.7s37.2-11.3,54.2-29l-13,7-8.5.8-14.6,7-5.1-5.8-23.9,11.3-13.1-5.5-4.8,6.2-4.5-10.5-6.9,6.5-4-6.5-1.1,7.5-11.7-8.3,2.1,5-11.2-5,2.1,4.3A44.68,44.68,0,0,0-218.22,138.94Z" transform="translate(348.65 41.57)"/><g id="b4n7eCfiDH"><text class="cls-7" transform="matrix(0.81, 0, 0, 1, 365.23, 136.57)">Green Gourmet</text></g></svg>