<?xml version="1.0" encoding="utf-8"?>
<!-- Generator: Adobe Illustrator 19.0.0, SVG Export Plug-In . SVG Version: 6.00 Build 0)  -->
<svg version="1.1" id="Layer_1" xmlns="http://www.w3.org/2000/svg" xmlns:xlink="http://www.w3.org/1999/xlink" x="0px" y="0px"
	 viewBox="0 0 478 828" style="enable-background:new 0 0 478 828;" xml:space="preserve">
<style type="text/css">
	.st0{fill:url(#XMLID_2_);}
	.st1{fill:none;}
	.st2{fill:url(#XMLID_3_);}
	.st3{fill:#333333;}
</style>
<g id="XMLID_566_">
	<linearGradient id="XMLID_2_" gradientUnits="userSpaceOnUse" x1="-13.9855" y1="161.5145" x2="490.9855" y2="666.4855">
		<stop  offset="0" style="stop-color:#CCCCCC"/>
		<stop  offset="1" style="stop-color:#808080"/>
	</linearGradient>
	<path id="XMLID_487_" class="st0" d="M415,107.1c0-28.8-23.3-52.1-52.1-52.1H114.1C85.3,55,62,78.3,62,107.1v613.8
		c0,28.8,23.3,52.1,52.1,52.1h248.8c28.8,0,52.1-23.3,52.1-52.1V107.1z M407,720.4c0,24.6-20,44.6-44.6,44.6H113.6
		C89,765,69,745,69,720.4V106.6C69,82,89,62,113.6,62h248.8C387,62,407,82,407,106.6V720.4z"/>
	<path id="XMLID_136_" class="st1" d="M365.6,74h-28.5c-6.1,0-8.3-0.2-8.7,7.5c-0.4,8-5.9,12.5-13.3,14.8c-2.5,0.8-5.3,0.7-8,0.7
		h-5.4H180.9h-5.4c-2.7,0-5.5,0.2-8-0.6c-7.4-2.3-13-7-13.3-15c-0.4-7.7-2.6-7.4-8.7-7.4h-28.8C99.2,74,84,88,84,105.4v613.3
		c0,17.5,15.2,31.3,32.6,31.3h249c17.5,0,30.4-13.8,30.4-31.3V105.4C396,88,383.1,74,365.6,74z"/>
	<linearGradient id="XMLID_3_" gradientUnits="userSpaceOnUse" x1="-9.1822" y1="166.3178" x2="485.1822" y2="660.6822">
		<stop  offset="0" style="stop-color:#666666"/>
		<stop  offset="1" style="stop-color:#000000"/>
	</linearGradient>
	<path id="XMLID_131_" class="st2" d="M407,106.6C407,82,387,62,362.4,62H113.6C89,62,69,82,69,106.6v613.8C69,745,89,765,113.6,765
		h248.8c24.6,0,44.6-20,44.6-44.6V106.6z M281.4,79.1c0,2.4-2,4.4-4.4,4.4c-2.4,0-4.4-2-4.4-4.4s2-4.4,4.4-4.4
		C279.5,74.7,281.4,76.6,281.4,79.1z M221.9,77h39c1.7,0,3,1,3,2.5s-1.3,2.5-3,2.5h-39c-1.7,0-3-1-3-2.5S220.3,77,221.9,77z
		 M396,718.7c0,17.5-12.9,31.3-30.4,31.3h-249C99.2,750,84,736.2,84,718.7V105.4C84,88,99.2,74,116.6,74h28.8c6.1,0,8.3-0.2,8.7,7.5
		c0.4,8,5.9,12.5,13.3,14.8c2.5,0.8,5.3,0.7,8,0.7h5.4h120.7h5.4c2.7,0,5.5,0.2,8-0.6c7.4-2.3,13-7,13.3-15c0.4-7.7,2.6-7.4,8.7-7.4
		h28.5c17.5,0,30.4,14,30.4,31.4V718.7z"/>
	<circle id="XMLID_130_" class="st3" cx="277.1" cy="79.1" r="4.4"/>
	<path id="XMLID_129_" class="st3" d="M221.9,82h39c1.7,0,3-1,3-2.5s-1.3-2.5-3-2.5h-39c-1.7,0-3,1-3,2.5S220.3,82,221.9,82z"/>
</g>
</svg>
