<?xml version="1.0" encoding="UTF-8" standalone="no"?>
<!DOCTYPE svg PUBLIC "-//W3C//DTD SVG 1.1//EN" "http://www.w3.org/Graphics/SVG/1.1/DTD/svg11.dtd">
<svg version="1.1" xmlns="http://www.w3.org/2000/svg" xmlns:xlink="http://www.w3.org/1999/xlink" preserveAspectRatio="xMidYMid meet" viewBox="0 0 640 640" width="640" height="640"><defs><path d="M468.44 337.58C468.44 410.59 401.92 469.87 320 469.87C238.08 469.87 171.56 410.59 171.56 337.58C171.56 264.56 238.08 205.28 320 205.28C401.92 205.28 468.44 264.56 468.44 337.58Z" id="d15IB0UYot"></path><path d="M622.65 284.34C628.86 321.43 498.28 373.45 331.24 400.45C164.2 427.45 23.55 419.26 17.35 382.18C11.14 345.1 141.72 293.07 308.76 266.07C475.8 239.08 616.45 247.26 622.65 284.34Z" id="e1BgzF0Mst"></path><path d="M595.17 289.72C600.13 320.01 480.86 364.11 328.99 388.14C177.12 412.17 49.8 407.09 44.83 376.81C39.87 346.52 159.14 302.42 311.01 278.38C462.88 254.35 590.2 259.43 595.17 289.72Z" id="aGitIN87O"></path><path d="M174.88 358.5C166.57 332.88 162.61 311.2 163 293.46C163.59 266.85 175.06 240.55 183.57 223.57C198.89 192.96 224.22 170.9 259.57 157.38C274.21 150.42 295.64 146.94 323.85 146.94C352.06 146.94 379.59 156.29 406.44 174.99C421.87 184.41 436.05 198.99 448.97 218.75C461.89 238.5 469.24 272.53 471.01 320.84C447.8 329.91 431.45 336 421.96 339.11C412.47 342.22 398.66 345.74 380.54 349.68C350.18 356.01 317.28 360.76 281.85 363.93C246.43 367.09 210.77 365.28 174.88 358.5" id="bIsNxAZHd"></path><path d="M303.64 141.34C303.31 148.57 296.23 154.14 287.84 153.77C279.45 153.4 272.91 147.23 273.24 140C273.57 132.78 280.65 127.21 289.04 127.58C297.43 127.95 303.97 134.12 303.64 141.34Z" id="doYhypFko"></path><path d="M243.92 453.78C247.54 456.27 251.46 458.2 255.68 459.57C281.84 470.77 311.55 474.85 344.79 471.82C378.04 468.8 409.44 451.28 438.99 419.28L416.36 431.89L401.59 433.25L376.19 445.96L367.42 435.52L325.94 455.94L303.24 445.96L294.93 457.15L287.08 438.24L275.07 450.04L268.15 438.24L266.3 451.86L245.98 436.88L249.68 445.96L230.28 436.88L233.98 444.6C236.99 448.22 240.31 451.28 243.92 453.78Z" id="cwYMTIw9u"></path></defs><g><g><g><use xlink:href="#d15IB0UYot" opacity="1" fill="#02c39a" fill-opacity="1"></use><g><use xlink:href="#d15IB0UYot" opacity="1" fill-opacity="0" stroke="#43845d" stroke-width="0" stroke-opacity="1"></use></g></g><g><use xlink:href="#e1BgzF0Mst" opacity="1" fill="#f0f3bd" fill-opacity="1"></use></g><g><use xlink:href="#aGitIN87O" opacity="1" fill="#e5e7b1" fill-opacity="1"></use><g><use xlink:href="#aGitIN87O" opacity="1" fill-opacity="0" stroke="#e5af83" stroke-width="0" stroke-opacity="1"></use></g></g><g><use xlink:href="#bIsNxAZHd" opacity="1" fill="#05668d" fill-opacity="1"></use><g><use xlink:href="#bIsNxAZHd" opacity="1" fill-opacity="0" stroke="#000000" stroke-width="0" stroke-opacity="1"></use></g></g><g><use xlink:href="#doYhypFko" opacity="1" fill="#05668d" fill-opacity="1"></use></g><g><use xlink:href="#cwYMTIw9u" opacity="1" fill="#ffffff" fill-opacity="1"></use><g><use xlink:href="#cwYMTIw9u" opacity="1" fill-opacity="0" stroke="#000000" stroke-width="0" stroke-opacity="1"></use></g></g></g></g></svg>